<?xml version="1.0" encoding="UTF-8" standalone="no"?>
<svg
   xmlns:dc="http://purl.org/dc/elements/1.1/"
   xmlns:cc="http://creativecommons.org/ns#"
   xmlns:rdf="http://www.w3.org/1999/02/22-rdf-syntax-ns#"
   xmlns:svg="http://www.w3.org/2000/svg"
   xmlns="http://www.w3.org/2000/svg"
   xmlns:sodipodi="http://sodipodi.sourceforge.net/DTD/sodipodi-0.dtd"
   xmlns:inkscape="http://www.inkscape.org/namespaces/inkscape"
   inkscape:version="1.0 (4035a4fb49, 2020-05-01)"
   sodipodi:docname="icons8-vk.com.svg"
   id="svg885"
   version="1.1"
   height="18px"
   width="20px"
   viewBox="0 0 50 50"
   fill="white">
  <metadata
     id="metadata891">
    <rdf:RDF>
      <cc:Work
         rdf:about="">
        <dc:format>image/svg+xml</dc:format>
        <dc:type
           rdf:resource="http://purl.org/dc/dcmitype/StillImage" />
        <dc:title></dc:title>
      </cc:Work>
    </rdf:RDF>
  </metadata>
  <defs
     id="defs889" />
  <sodipodi:namedview
     inkscape:current-layer="svg885"
     inkscape:window-maximized="0"
     inkscape:window-y="18"
     inkscape:window-x="0"
     inkscape:cy="9"
     inkscape:cx="10"
     inkscape:zoom="48.777778"
     showgrid="false"
     id="namedview887"
     inkscape:window-height="1056"
     inkscape:window-width="1914"
     inkscape:pageshadow="2"
     inkscape:pageopacity="0"
     guidetolerance="10"
     gridtolerance="10"
     objecttolerance="10"
     borderopacity="1"
     bordercolor="#666666"
     pagecolor="#000000" />
  <path
     id="path881"
     d="M 8.8913498,46.610308 H 40.89135 c 2.209,0 4,-1.791 4,-4 v -32 c 0,-2.209 -1.791,-4 -4,-4 H 8.8913498 c -2.209,0 -4,1.791 -4,4 v 32 c 0,2.209 1.791,4 4,4 z"
     stroke-width="2"
     stroke-miterlimit="10"
     stroke-linejoin="round"
     stroke-linecap="round"
     stroke="#ffffff"
     fill="none" />
  <path
     id="path883"
     d="m 35.86535,29.725308 c 2.237,2.083 2.701,3.096 2.777,3.222 0.927,1.542 -1.028,1.663 -1.028,1.663 l -3.735,-0.015 c 0,0 -0.804,0.158 -1.86,-0.569 -1.397,-0.96 -2.713,-3.457 -3.74,-3.134 -0.862,0.27 -1.119,1.13 -1.119,2.175 0,0.375 -0.262,0.542 -0.955,0.542 -0.693,0 -1.364,0 -1.672,0 -2.256,0 -4.42,0.053 -6.863,-2.623 -3.455,-3.785 -6.704,-10.529 -6.704,-10.529 0,0 -0.179,-0.384 0.016,-0.617 0.221,-0.262 0.821,-0.229 0.821,-0.229 l 3.996,-0.001 c 0,0 0.376,0.075 0.646,0.274 0.223,0.163 0.347,0.476 0.347,0.476 0,0 0.679,1.324 1.534,2.806 1.67,2.893 2.446,3.527 3.013,3.216 0.827,-0.451 0.579,-4.088 0.579,-4.088 0,0 0.016,-1.321 -0.416,-1.908 -0.333,-0.456 -0.962,-0.589 -1.24,-0.626 -0.225,-0.03 0.143,-0.553 0.622,-0.789 0.719,-0.353 1.989,-0.372 3.49,-0.357 1.168,0.012 1.201,0.136 1.657,0.246 1.378,0.333 0.91,1.622 0.91,4.712 0,0.99 -0.178,2.382 0.534,2.843 0.307,0.199 1.36,-0.022 3.232,-3.21 0.889,-1.512 1.567,-3.021 1.567,-3.021 0,0 0.146,-0.276 0.372,-0.412 0.232,-0.139 0.224,-0.136 0.543,-0.136 0.319,0 3.506,-0.026 4.206,-0.026 0.699,0 1.354,-0.008 1.468,0.421 0.162,0.617 -0.487,1.734 -2.204,4.03 -2.823,3.77 -3.136,3.485 -0.794,5.664 z"
     stroke-width="2"
     stroke-miterlimit="10"
     stroke-linejoin="round"
     stroke-linecap="round"
     stroke="#ffffff"
     fill="none" />
</svg>
