<?xml version="1.0" encoding="UTF-8" standalone="no"?>
<svg
   xmlns:dc="http://purl.org/dc/elements/1.1/"
   xmlns:cc="http://creativecommons.org/ns#"
   xmlns:rdf="http://www.w3.org/1999/02/22-rdf-syntax-ns#"
   xmlns:svg="http://www.w3.org/2000/svg"
   xmlns="http://www.w3.org/2000/svg"
   xmlns:sodipodi="http://sodipodi.sourceforge.net/DTD/sodipodi-0.dtd"
   xmlns:inkscape="http://www.inkscape.org/namespaces/inkscape"
   inkscape:version="1.0 (4035a4fb49, 2020-05-01)"
   sodipodi:docname="telega (2).svg"
   id="svg68"
   preserveAspectRatio="xMidYMid meet"
   viewBox="0 0 280.000000 280.000000"
   width="16" 
   height="16"
   version="1.0">
  <defs
     id="defs72" />
  <sodipodi:namedview
     inkscape:current-layer="svg68"
     inkscape:window-maximized="0"
     inkscape:window-y="18"
     inkscape:window-x="0"
     inkscape:cy="186.66667"
     inkscape:cx="109.06606"
     inkscape:zoom="2.3517857"
     showgrid="false"
     id="namedview70"
     inkscape:window-height="1056"
     inkscape:window-width="1914"
     inkscape:pageshadow="2"
     inkscape:pageopacity="0"
     guidetolerance="10"
     gridtolerance="10"
     objecttolerance="10"
     borderopacity="1"
     bordercolor="#666666"
     pagecolor="#ffffff" />
  <metadata
     id="metadata60">
Created by potrace 1.16, written by Peter Selinger 2001-2019
<rdf:RDF>
  <cc:Work
     rdf:about="">
    <dc:format>image/svg+xml</dc:format>
    <dc:type
       rdf:resource="http://purl.org/dc/dcmitype/StillImage" />
    <dc:title></dc:title>
  </cc:Work>
</rdf:RDF>
</metadata>
  <g
     style="fill:#ffffff"
     id="g66"
     stroke="none"
     fill="#000000"
     transform="matrix(0.1,0,0,-0.1,-0.68009012,275.73095)">
    <path
       style="fill:#ffffff"
       id="path62"
       d="M 1232,2690 C 675,2611 244,2207 124,1649 98,1531 98,1269 124,1150 182,880 292,676 484,484 676,292 880,182 1150,124 c 119,-26 381,-26 500,0 270,58 474,168 666,360 192,192 302,396 360,666 26,119 26,381 0,500 -58,270 -168,474 -360,666 -189,188 -384,296 -646,355 -98,22 -340,33 -438,19 z m 379,-105 c 294,-51 582,-230 758,-469 174,-236 259,-541 231,-821 C 2570,998 2456,755 2251,549 2018,315 1732,196 1400,196 1068,196 782,315 549,549 497,602 428,684 396,733 37,1277 174,2007 705,2382 c 135,96 321,175 478,203 100,18 326,18 428,0 z" />
    <path
       style="fill:#ffffff"
       id="path64"
       d="m 1365,1684 c -319,-124 -611,-237 -649,-252 -76,-30 -98,-51 -80,-80 12,-18 338,-125 364,-119 8,2 182,109 385,237 204,128 378,235 389,238 13,3 17,1 14,-9 -2,-8 -125,-125 -272,-260 -147,-135 -283,-261 -301,-280 l -34,-34 -12,-158 c -7,-86 -10,-160 -6,-163 11,-11 53,20 134,99 l 82,79 171,-126 c 141,-104 178,-126 206,-126 29,0 37,5 49,33 9,17 60,243 114,502 135,639 127,590 107,620 -12,18 -25,25 -49,24 -17,0 -293,-101 -612,-225 z" />
  </g>
</svg>
